<?xml version="1.0" encoding="UTF-8"?>
<!DOCTYPE svg PUBLIC "-//W3C//DTD SVG 1.1//EN" "http://www.w3.org/Graphics/SVG/1.1/DTD/svg11.dtd">
<!-- Creator: CorelDRAW 2019 (64-Bit) -->
<svg xmlns="http://www.w3.org/2000/svg" xml:space="preserve" width="58.2104mm" height="61.9276mm" version="1.1" style="shape-rendering:geometricPrecision; text-rendering:geometricPrecision; image-rendering:optimizeQuality; fill-rule:evenodd; clip-rule:evenodd"
viewBox="0 0 100888 107330"
 xmlns:xlink="http://www.w3.org/1999/xlink">
 <defs>
  <style type="text/css">
   <![CDATA[
    .fil0 {fill:#FEFEFE}
   ]]>
  </style>
 </defs>
 <g id="Capa_x0020_1">
  <metadata id="CorelCorpID_0Corel-Layer"/>
  <g id="_2021004241680">
   <path class="fil0" d="M71063 75474c-10704,0 -10721,-17480 0,-17480 3392,0 6041,2420 7049,5204 1978,5462 -1003,12276 -7049,12276zm-57995 -75474l1 0c696,1450 2210,7261 2683,8916l2708 8891c421,-1806 2387,-4806 3848,-5953 451,-354 626,-588 1049,-912 676,-519 1478,-1013 2344,-1413 5944,-2747 12565,-1576 16308,3842 2198,3181 3027,7479 4202,11154l1556 5305c3,8 120,301 142,349 11,24 51,128 59,104 8,-23 38,70 61,103 0,-3674 -559,-5881 713,-9742 949,-2880 1980,-4850 3672,-6946 5417,-6711 16025,-8587 23671,-5159 2432,1091 4308,2667 5975,4644 3750,4449 5177,10216 5177,16224 -2165,0 -4330,432 -6536,488l-19036 1546c-418,228 -244,-12 -60,521l863 1629c1514,2274 4005,3497 6799,3495 5435,-4 7632,-3560 9148,-4576 921,246 3118,2035 4015,2683 719,520 3169,2488 3990,2708 -256,1098 -1402,2023 -2075,2826 -607,725 -462,634 -1216,1234 -483,385 -653,659 -1210,1077 -1453,1089 -4389,3037 -6280,3195l0 327c4898,0 8830,2335 11639,5515 5968,6755 6454,19077 1954,26538 -422,700 -708,1159 -1175,1766 -385,501 -798,1046 -1266,1511 -1949,1940 -4029,3526 -7031,4405 -3031,888 -6736,1043 -9818,-59 -4355,-1557 -5694,-4030 -6719,-4716l0 25158 -13722 0c0,-12252 3,-24505 0,-36757 0,-1753 166,-2865 164,-4574l0 -13723c0,-868 -380,-3957 239,-4336 415,-254 9788,-72 11364,-79 992,-4 1300,167 2120,167l0 4901c717,-825 1920,-2132 2774,-2781 522,-396 1076,-789 1644,-1133 514,-311 1351,-606 1790,-987 -4642,0 -8548,-490 -12285,-2744 -5469,-3299 -5658,-5801 -7319,-7711 47,2119 1587,4089 1634,6208 -1463,122 -7953,2288 -9896,2846 -998,287 -2122,824 -3173,911 -454,-946 -3922,-13100 -4430,-14847 -360,-1236 -780,-2522 -1124,-3777 -316,-1149 -707,-2502 -1252,-3486 -1129,-2041 -3265,-3514 -6286,-2582 -2431,750 -4207,2912 -3839,5670 581,4343 6133,20126 6313,22289 -1288,107 -5166,1433 -6596,1899 -1403,457 -5212,1754 -6473,1858 -554,-1154 -5125,-17011 -5647,-18858 -604,-2135 -1266,-4139 -1832,-6173l-6550 -22039c-255,-824 -764,-2210 -837,-3084 1129,-94 2295,-664 3301,-946l6562 -1934c829,-270 2400,-811 3205,-878zm36921 36920l-188 -318 188 318zm-327 -654c0,-418 259,-26 97,0 -2,1 -97,456 -97,0zm-1634 -5554c0,-418 259,-26 97,0 -2,0 -97,456 -97,0zm12579 -6371c535,-2298 850,-5179 3807,-6648 4806,-2388 9093,1678 9426,5668 -2067,0 -4195,429 -6536,489 -1987,51 -3936,492 -6696,492z"/>
   <path class="fil0" d="M24178 104226c514,246 12571,2614 13559,2614 0,-1016 11401,-57434 11435,-57504 -808,-188 -12721,-2614 -13559,-2614l-1375 7120c-498,2492 -948,4740 -1443,7215 -946,4731 -1931,9657 -2886,14431l-4302 21510c-463,2318 -888,4903 -1430,7229z"/>
   <path class="fil0" d="M84949 98672c0,2700 318,4322 2327,6331 1454,1454 3184,2184 4915,2327l1290 0c4376,-362 8312,-4340 7222,-9710 -1189,-5859 -9342,-8930 -14085,-3159 -785,955 -1670,2547 -1670,4211z"/>
  </g>
 </g>
</svg>
