<?xml version="1.0" encoding="UTF-8"?>
<!DOCTYPE svg PUBLIC "-//W3C//DTD SVG 1.1//EN" "http://www.w3.org/Graphics/SVG/1.1/DTD/svg11.dtd">
<!-- Creator: CorelDRAW 2019 (64-Bit) -->
<svg xmlns="http://www.w3.org/2000/svg" xml:space="preserve" width="58.7597mm" height="62.4568mm" version="1.1" style="shape-rendering:geometricPrecision; text-rendering:geometricPrecision; image-rendering:optimizeQuality; fill-rule:evenodd; clip-rule:evenodd"
viewBox="0 0 2662.59 2830.12"
 xmlns:xlink="http://www.w3.org/1999/xlink">
 <defs>
  <style type="text/css">
   <![CDATA[
    .str0 {stroke:#FEFEFE;stroke-width:23.98;stroke-miterlimit:22.9256;stroke-opacity:0.341176}
    .fil0 {fill:none}
   ]]>
  </style>
 </defs>
 <g id="Capa_x0020_1">
  <metadata id="CorelCorpID_0Corel-Layer"/>
  <g id="_2022856783392">
   <path class="fil0 str0" d="M1870.89 1985.26c-279.85,0 -280.31,-457.02 0,-457.02 88.7,0 157.93,63.28 184.28,136.05 51.71,142.79 -26.22,320.96 -184.28,320.96zm-1516.27 -1973.27l0.01 0c18.19,37.9 57.79,189.85 70.14,233.11l70.8 232.45c11,-47.22 62.4,-125.64 100.62,-155.65 11.78,-9.25 16.36,-15.37 27.41,-23.84 17.69,-13.57 38.63,-26.48 61.29,-36.95 155.39,-71.83 328.5,-41.2 426.38,100.46 57.48,83.17 79.13,195.54 109.86,291.63l40.68 138.7c0.07,0.21 3.15,7.87 3.71,9.11 0.28,0.62 1.33,3.34 1.54,2.73 0.2,-0.6 0.99,1.83 1.59,2.68 0,-96.06 -14.63,-153.76 18.63,-254.71 24.81,-75.3 51.77,-126.8 96.01,-181.61 141.63,-175.46 418.98,-224.5 618.87,-134.88 63.58,28.51 112.64,69.73 156.21,121.42 98.04,116.31 135.35,267.09 135.35,424.17 -56.61,0 -113.2,11.3 -170.89,12.77l-497.68 40.43c-10.93,5.96 -6.38,-0.31 -1.56,13.61l22.56 42.59c39.58,59.46 104.7,91.43 177.75,91.37 142.09,-0.1 199.53,-93.08 239.19,-119.64 24.08,6.43 81.53,53.19 104.96,70.15 18.8,13.59 82.84,65.06 104.32,70.8 -6.69,28.71 -36.67,52.88 -54.26,73.87 -15.87,18.95 -12.07,16.58 -31.8,32.27 -12.64,10.06 -17.06,17.22 -31.64,28.16 -37.98,28.48 -114.75,79.41 -164.2,83.52l0 8.55c128.07,0 230.85,61.06 304.29,144.18 156.05,176.61 168.73,498.76 51.08,693.82 -11.04,18.3 -18.52,30.31 -30.71,46.17 -10.07,13.1 -20.86,27.36 -33.09,39.52 -50.95,50.71 -105.34,92.18 -183.81,115.17 -79.24,23.21 -176.11,27.27 -256.68,-1.54 -113.85,-40.71 -148.88,-105.36 -175.68,-123.31l0 657.76 -358.77 0c0,-320.34 0.08,-640.68 -0,-961.01 -0.01,-45.83 4.33,-74.9 4.28,-119.59l0 -358.78c0,-22.69 -9.94,-103.46 6.24,-113.36 10.85,-6.64 255.91,-1.89 297.11,-2.07 25.95,-0.1 33.98,4.37 55.43,4.37l0 128.13c18.74,-21.56 50.19,-55.74 72.52,-72.7 13.64,-10.36 28.13,-20.64 42.99,-29.62 13.44,-8.12 35.31,-15.83 46.79,-25.81 -121.35,0 -223.49,-12.82 -321.19,-71.75 -143,-86.25 -147.93,-151.66 -191.35,-201.6 1.24,55.41 41.48,106.9 42.72,162.31 -38.25,3.18 -207.93,59.81 -258.74,74.41 -26.08,7.49 -55.49,21.54 -82.95,23.83 -11.87,-24.75 -102.53,-342.49 -115.83,-388.17 -9.4,-32.32 -20.39,-65.95 -29.39,-98.74 -8.25,-30.05 -18.49,-65.41 -32.73,-91.14 -29.53,-53.35 -85.37,-91.87 -164.36,-67.51 -63.56,19.61 -110,76.14 -100.36,148.24 15.18,113.56 160.34,526.19 165.04,582.74 -33.69,2.8 -135.07,37.48 -172.45,49.65 -36.69,11.95 -136.27,45.85 -169.24,48.59 -14.47,-30.16 -133.99,-444.75 -147.64,-493.03 -15.79,-55.83 -33.09,-108.21 -47.9,-161.39l-171.25 -576.2c-6.67,-21.56 -19.98,-57.79 -21.88,-80.63 29.51,-2.46 60,-17.37 86.32,-24.73l171.55 -50.55c21.68,-7.06 62.75,-21.2 83.81,-22.96zm965.29 965.28l-4.91 -8.32 4.91 8.32zm-8.54 -17.09c0,-10.92 6.76,-0.68 2.54,0 -0.05,0.01 -2.54,11.93 -2.54,0zm-42.71 -145.22c0,-10.93 6.76,-0.68 2.54,0 -0.05,0.01 -2.54,11.93 -2.54,0zm328.87 -166.57c14,-60.08 22.21,-135.4 99.54,-173.82 125.65,-62.44 237.75,43.87 246.43,148.19 -54.04,0 -109.68,11.21 -170.89,12.78 -51.95,1.33 -102.9,12.86 -175.08,12.86z"/>
   <path class="fil0 str0" d="M645.07 2736.98c13.43,6.44 328.67,68.34 354.51,68.34 0,-26.57 298.09,-1501.6 298.98,-1503.44 -21.13,-4.93 -332.59,-68.34 -354.5,-68.34l-35.95 186.15c-13.03,65.15 -24.79,123.92 -37.73,188.64 -24.74,123.7 -50.49,252.47 -75.46,377.29l-112.47 562.36c-12.12,60.59 -23.2,128.19 -37.37,189z"/>
   <path class="fil0 str0" d="M2233.93 2591.76c0,70.58 8.31,113 60.85,165.52 38,38 83.24,57.11 128.51,60.85l33.73 0c114.42,-9.47 217.31,-113.48 188.82,-253.88 -31.08,-153.17 -244.24,-233.46 -368.24,-82.58 -20.51,24.96 -43.67,66.59 -43.67,110.09z"/>
  </g>
 </g>
</svg>
